<?xml version="1.0" encoding="iso-8859-1"?>
<!-- Generator: Adobe Illustrator 19.0.0, SVG Export Plug-In . SVG Version: 6.00 Build 0)  -->
<svg version="1.1" id="Capa_1" xmlns="http://www.w3.org/2000/svg" xmlns:xlink="http://www.w3.org/1999/xlink" x="0px" y="0px"
	 viewBox="0 0 480 480" style="enable-background:new 0 0 480 480;" xml:space="preserve">
<path id="XMLID_2144_" d="M80,270c-16.542,0-30,13.458-30,30v30c0,5.522,4.477,10,10,10h40c5.523,0,10-4.478,10-10v-30
	C110,283.458,96.542,270,80,270z M90,320H70v-20c0-5.514,4.486-10,10-10s10,4.486,10,10V320z M400,270c-16.542,0-30,13.458-30,30v30
	c0,5.522,4.477,10,10,10h40c5.523,0,10-4.478,10-10v-30C430,283.458,416.542,270,400,270z M410,320h-20v-20c0-5.514,4.486-10,10-10
	s10,4.486,10,10V320z M220,250h40c5.523,0,10-4.478,10-10v-10c0-16.542-13.458-30-30-30s-30,13.458-30,30v10
	C210,245.522,214.477,250,220,250z M240,220c5.514,0,10,4.486,10,10h-20C230,224.486,234.486,220,240,220z M220,340h40
	c5.523,0,10-4.478,10-10v-30c0-16.542-13.458-30-30-30s-30,13.458-30,30v30C210,335.522,214.477,340,220,340z M230,300
	c0-5.514,4.486-10,10-10s10,4.486,10,10v20h-20V300z M470,460V200c0-5.522-4.477-10-10-10h-30c-11.028,0-20,8.812-20,19.643v18.929
	h-20v-18.929c0-10.831-8.972-19.643-20-19.643h-20v-19.98c0-0.044,0-0.087,0-0.131c-0.023-2.059-0.667-3.968-1.754-5.549L252.019,20
	H300c5.523,0,10-4.478,10-10s-4.477-10-10-10h-50c-9.84,0-18.043,7.144-19.696,16.517L131.755,164.34
	c-1.087,1.581-1.731,3.49-1.754,5.549c0,0.044,0,0.087,0,0.131V190h-20c-11.028,0-20,8.812-20,19.643v18.929H70v-18.929
	C70,198.812,61.028,190,50,190H30c-11.028,0-20,8.812-20,19.643V460c-5.523,0-10,4.478-10,10s4.477,10,10,10h460
	c5.523,0,10-4.478,10-10S475.523,460,470,460z M130,460H30V210h20v18.929c0,10.831,8.972,19.643,20,19.643h20
	c11.028,0,20-8.812,20-19.643V210h20V460z M240,38.027L321.315,160h-162.63L240,38.027z M290,460H190v-30c0-27.57,22.43-50,50-50
	s50,22.43,50,50V460z M330,460h-20v-30c0-38.599-31.402-70-70-70s-70,31.401-70,70v30h-20V180h180V460z M450,460H350V210h20v18.929
	c0,10.831,8.972,19.643,20,19.643h20c11.028,0,20-8.812,20-19.643V210h20V460z"/>
<g>
</g>
<g>
</g>
<g>
</g>
<g>
</g>
<g>
</g>
<g>
</g>
<g>
</g>
<g>
</g>
<g>
</g>
<g>
</g>
<g>
</g>
<g>
</g>
<g>
</g>
<g>
</g>
<g>
</g>
</svg>
